<svg width="24" height="24" viewBox="0 0 24 24" fill="none" xmlns="http://www.w3.org/2000/svg">
<path d="M17 6V10V10C17 10.2761 16.7755 10.4974 16.5007 10.5246C15.2249 10.6511 14.0902 11.2571 13.2793 12.1599C12.4839 13.0453 12 14.2162 12 15.5C12 15.7894 12.0246 16.0731 12.0718 16.3491C12.329 17.8523 13.2572 19.1265 14.5371 19.8523C13.2058 20.2548 11.4388 20.5 9.5 20.5C5.35785 20.5 2 19.3807 2 18V14V10V6" stroke="#383838" stroke-width="1.5" stroke-linecap="round" stroke-linejoin="round"/>
<path d="M2 12C2 13.3807 5.35785 14.5 9.5 14.5C10.4035 14.5 11.2697 14.4467 12.0718 14.3491" stroke="#383838" stroke-width="1.5" stroke-linecap="round" stroke-linejoin="round"/>
<path d="M22 15.5C22 18.2614 19.7614 20.5 17 20.5C16.1046 20.5 15.2641 20.2646 14.5371 19.8523C13.2572 19.1265 12.329 17.8523 12.0718 16.3491C12.0246 16.0731 12 15.7894 12 15.5C12 14.2162 12.4839 13.0453 13.2793 12.1599C14.1946 11.1409 15.5224 10.5 17 10.5C19.7614 10.5 22 12.7386 22 15.5Z" stroke="#0055FF" stroke-width="1.5" stroke-linecap="round" stroke-linejoin="round"/>
<path d="M17 6C17 7.3807 13.6421 8.5 9.5 8.5C5.35785 8.5 2 7.3807 2 6C2 4.61929 5.35785 3.5 9.5 3.5C13.6421 3.5 17 4.61929 17 6Z" stroke="#383838" stroke-width="1.5" stroke-linecap="round" stroke-linejoin="round"/>
<path d="M18.4141 16.9141L20.4999 18.9999" stroke="#0055FF" stroke-width="1.5" stroke-linecap="round" stroke-linejoin="round"/>
<path d="M19 15.5C19 16.0523 18.7761 16.5523 18.4142 16.9142C18.0523 17.2761 17.5523 17.5 17 17.5C15.8954 17.5 15 16.6046 15 15.5C15 14.3954 15.8954 13.5 17 13.5C18.1046 13.5 19 14.3954 19 15.5Z" stroke="#0055FF" stroke-width="1.5" stroke-linecap="round" stroke-linejoin="round"/>
</svg>
